<svg id="visual" viewBox="0 0 960 540" width="960" height="540" xmlns="http://www.w3.org/2000/svg" xmlns:xlink="http://www.w3.org/1999/xlink" version="1.1"><rect x="0" y="0" width="960" height="540" fill="#181818"></rect><defs><linearGradient id="grad1_0" x1="43.8%" y1="0%" x2="100%" y2="100%"><stop offset="14.444444444444446%" stop-color="#181818" stop-opacity="1"></stop><stop offset="85.55555555555554%" stop-color="#181818" stop-opacity="1"></stop></linearGradient></defs><defs><linearGradient id="grad2_0" x1="0%" y1="0%" x2="56.3%" y2="100%"><stop offset="14.444444444444446%" stop-color="#181818" stop-opacity="1"></stop><stop offset="85.55555555555554%" stop-color="#181818" stop-opacity="1"></stop></linearGradient></defs><g transform="translate(960, 0)"><path d="M0 270C-34.8 241.9 -69.6 213.8 -112.5 194.9C-155.4 175.9 -206.2 166 -233.8 135C-261.4 104 -265.7 52 -270 0L0 0Z" fill="#0080FB"></path></g><g transform="translate(0, 540)"><path d="M0 -270C38.3 -247.9 76.6 -225.9 119 -206.1C161.4 -186.4 208 -169 233.8 -135C259.7 -101 264.8 -50.5 270 0L0 0Z" fill="#0080FB"></path></g></svg>